{"glyphs":{"0":{"ha":772,"x_min":60,"x_max":709,"o":"m 60 490 q 141 871 60 745 q 385 998 222 998 q 628 871 547 998 q 709 490 709 745 q 628 110 709 237 q 385 -17 547 -17 q 141 110 222 -17 q 60 490 60 237 m 186 490 q 239 173 186 262 q 385 83 292 83 q 530 172 477 83 q 583 490 583 261 q 532 807 583 716 q 383 897 480 897 q 237 806 288 897 q 186 490 186 714 z "},"1":{"ha":772,"x_min":154,"x_max":520,"o":"m 520 0 l 398 0 l 398 778 q 154 631 306 688 l 154 749 q 441 998 368 851 l 520 998 l 520 0 z "},"2":{"ha":772,"x_min":43,"x_max":701,"o":"m 701 117 l 701 0 l 43 0 l 43 20 q 298 368 43 159 q 515 575 457 498 q 574 725 574 652 q 519 850 574 802 q 389 897 465 897 q 246 845 300 897 q 192 698 192 793 l 66 711 q 165 925 77 852 q 389 998 252 998 q 617 918 534 998 q 699 722 699 838 q 652 559 699 641 q 406 309 604 477 q 213 117 237 167 l 701 117 z "},"3":{"ha":772,"x_min":61,"x_max":712,"o":"m 61 262 l 183 279 q 378 83 222 83 q 523 143 463 83 q 583 291 583 203 q 528 429 583 374 q 388 484 473 484 q 302 471 353 484 l 315 578 q 335 576 327 576 q 477 619 416 576 q 538 743 538 662 q 489 857 538 817 q 375 898 439 898 q 195 719 223 898 l 73 741 q 174 930 94 862 q 372 998 255 998 q 580 924 497 998 q 663 740 663 850 q 629 620 663 671 q 526 538 595 570 q 665 451 618 519 q 712 294 712 382 q 613 69 712 156 q 377 -18 513 -18 q 157 63 241 -18 q 61 262 72 144 z "},"4":{"ha":772,"x_min":20,"x_max":708,"o":"m 452 0 l 452 238 l 20 238 l 20 350 l 474 994 l 574 994 l 574 350 l 708 350 l 708 238 l 574 238 l 574 0 l 452 0 m 452 350 l 452 798 l 140 350 l 452 350 z "},"5":{"ha":772,"x_min":60,"x_max":720,"o":"m 60 260 l 189 271 q 254 131 201 178 q 380 83 307 83 q 532 154 475 83 q 590 326 590 225 q 531 491 590 431 q 378 551 472 551 q 197 455 258 551 l 82 470 l 178 981 l 673 981 l 673 864 l 276 864 l 222 597 q 410 659 312 659 q 627 571 535 659 q 720 337 720 484 q 630 91 720 198 q 380 -17 541 -17 q 164 54 255 -17 q 60 260 73 125 z "},"6":{"ha":772,"x_min":58,"x_max":714,"o":"m 696 751 l 575 741 q 408 898 541 898 q 238 793 296 898 q 179 513 179 688 q 283 612 222 579 q 420 645 343 645 q 630 554 546 645 q 714 323 714 463 q 631 83 714 184 q 406 -17 548 -17 q 157 91 257 -17 q 58 465 58 199 q 154 870 58 742 q 412 998 250 998 q 607 932 531 998 q 696 751 683 866 m 198 322 q 255 154 198 224 q 401 83 311 83 q 537 150 484 83 q 589 315 589 216 q 537 475 589 413 q 397 537 484 537 q 255 477 311 537 q 198 322 198 416 z "},"7":{"ha":772,"x_min":68,"x_max":712,"o":"m 68 864 l 68 981 l 712 981 l 712 886 q 467 504 585 755 q 333 0 348 254 l 208 0 q 306 440 211 195 q 555 864 400 685 l 68 864 z "},"8":{"ha":772,"x_min":59,"x_max":714,"o":"m 248 539 q 136 617 174 566 q 99 742 99 668 q 178 925 99 852 q 385 998 258 998 q 592 925 511 998 q 673 739 673 851 q 637 617 673 667 q 527 539 600 567 q 668 440 622 511 q 714 287 714 370 q 618 65 714 146 q 387 -17 523 -17 q 153 66 248 -17 q 59 288 59 149 q 106 447 59 377 q 248 539 154 517 m 224 746 q 271 629 224 673 q 387 586 317 586 q 502 630 456 586 q 548 739 548 673 q 501 852 548 806 q 386 898 454 898 q 270 852 316 898 q 224 746 224 807 m 184 287 q 242 142 184 200 q 388 83 299 83 q 531 139 473 83 q 589 283 589 195 q 530 429 589 372 q 384 486 470 486 q 238 426 292 486 q 184 287 184 366 z "},"9":{"ha":772,"x_min":60,"x_max":714,"o":"m 79 230 l 196 241 q 361 83 220 83 q 534 189 476 83 q 593 446 593 294 q 592 468 593 452 q 496 376 560 416 q 355 337 432 337 q 146 427 231 337 q 60 663 60 517 q 146 902 60 806 q 373 998 231 998 q 613 892 513 998 q 714 515 714 786 q 616 107 714 231 q 358 -17 518 -17 q 169 47 244 -17 q 79 230 93 111 m 578 669 q 525 832 578 766 q 388 897 472 897 q 242 826 298 897 q 186 659 186 754 q 243 505 186 564 q 385 445 300 445 q 528 509 477 445 q 578 669 578 572 z "}," ":{"ha":386,"x_min":0,"x_max":0,"o":""},"!":{"ha":387,"x_min":117,"x_max":269,"o":"m 155 247 l 117 774 l 117 994 l 269 994 l 269 774 l 233 247 l 155 247 m 123 0 l 123 139 l 263 139 l 263 0 l 123 0 z "},"\"":{"ha":492,"x_min":64,"x_max":429,"o":"m 98 642 l 64 831 l 64 994 l 203 994 l 203 831 l 173 642 l 98 642 m 323 642 l 290 831 l 290 994 l 429 994 l 429 831 l 396 642 l 323 642 z "},"#":{"ha":772,"x_min":17,"x_max":758,"o":"m 73 -17 l 132 272 l 17 272 l 17 373 l 152 373 l 202 619 l 17 619 l 17 720 l 222 720 l 281 1011 l 383 1011 l 324 720 l 538 720 l 597 1011 l 699 1011 l 640 720 l 758 720 l 758 619 l 620 619 l 569 373 l 758 373 l 758 272 l 549 272 l 490 -17 l 388 -17 l 446 272 l 233 272 l 174 -17 l 73 -17 m 254 373 l 467 373 l 517 619 l 304 619 l 254 373 z "},"$":{"ha":772,"x_min":52,"x_max":710,"o":"m 349 -143 l 349 -21 q 52 276 72 7 l 175 299 q 349 82 204 96 l 349 471 q 73 750 73 530 q 140 936 73 857 q 349 1027 206 1015 l 349 1086 l 420 1086 l 420 1027 q 686 783 654 1006 l 559 764 q 420 924 541 903 l 420 572 q 710 283 710 513 q 629 72 710 158 q 420 -20 549 -15 l 420 -143 l 349 -143 m 349 926 q 237 870 279 916 q 195 760 195 823 q 349 588 195 634 l 349 926 m 420 82 q 534 139 483 90 q 585 274 585 189 q 554 379 585 336 q 420 454 523 422 l 420 82 z "},"%":{"ha":1235,"x_min":83,"x_max":1152,"o":"m 296 -37 l 840 1011 l 939 1011 l 397 -37 l 296 -37 m 83 755 q 138 939 83 866 q 292 1011 193 1011 q 448 944 387 1011 q 509 748 509 876 q 444 550 509 615 q 294 486 379 486 q 143 553 203 486 q 83 755 83 621 m 296 927 q 216 881 243 927 q 190 742 190 835 q 216 613 190 656 q 296 570 243 570 q 376 616 349 570 q 402 754 402 662 q 376 884 402 841 q 296 927 349 927 m 726 233 q 783 417 726 345 q 935 489 839 489 q 1095 418 1038 489 q 1152 226 1152 347 q 1090 31 1152 99 q 937 -37 1027 -37 q 786 31 846 -37 q 726 233 726 99 m 939 405 q 860 359 886 405 q 833 220 833 313 q 859 91 833 134 q 939 47 886 47 q 1019 94 992 47 q 1046 232 1046 140 q 1019 362 1046 319 q 939 405 993 405 z "},"&":{"ha":927,"x_min":60,"x_max":895,"o":"m 660 117 q 374 -17 541 -17 q 143 75 226 -17 q 60 274 60 166 q 296 571 60 458 q 184 789 184 699 q 255 945 184 880 q 431 1011 326 1011 q 597 949 532 1011 q 663 798 663 887 q 475 557 663 657 l 653 330 q 701 468 684 389 l 827 441 q 739 227 795 309 q 895 74 808 136 l 812 -23 q 660 117 739 24 m 412 635 q 538 795 538 705 q 505 879 538 848 q 425 911 471 911 q 344 880 378 911 q 310 801 310 849 q 357 699 310 755 l 412 635 m 583 214 l 359 491 q 191 281 191 391 q 242 154 191 216 q 376 91 293 91 q 494 128 435 91 q 583 214 553 165 z "},"'":{"ha":263,"x_min":63,"x_max":202,"o":"m 94 642 l 63 828 l 63 994 l 202 994 l 202 828 l 170 642 l 94 642 z "},"(":{"ha":463,"x_min":84,"x_max":412,"o":"m 325 -292 q 84 360 84 24 q 325 1011 84 690 l 412 1011 q 210 361 210 686 q 412 -292 210 33 l 325 -292 z "},")":{"ha":463,"x_min":50,"x_max":378,"o":"m 138 -292 l 50 -292 q 253 361 253 35 q 50 1011 253 685 l 138 1011 q 378 360 378 690 q 302 -9 378 164 q 138 -292 225 -182 z "},"*":{"ha":540,"x_min":46,"x_max":494,"o":"m 46 812 l 77 908 q 234 842 193 867 q 220 1011 220 965 l 319 1011 q 303 843 317 945 q 463 908 373 878 l 494 812 q 326 774 408 783 q 442 646 357 747 l 361 588 q 268 734 321 642 q 180 588 217 636 l 100 646 q 212 774 189 753 q 46 812 124 791 z "},"+":{"ha":811,"x_min":77,"x_max":734,"o":"m 348 161 l 348 433 l 77 433 l 77 547 l 348 547 l 348 818 l 463 818 l 463 547 l 734 547 l 734 433 l 463 433 l 463 161 l 348 161 z "},",":{"ha":387,"x_min":113,"x_max":260,"o":"m 121 0 l 121 139 l 260 139 l 260 0 q 146 -197 260 -147 l 113 -144 q 190 0 189 -113 l 121 0 z "},"-":{"ha":463,"x_min":44,"x_max":419,"o":"m 44 298 l 44 421 l 419 421 l 419 298 l 44 298 z "},"­":{"ha":463,"x_min":44,"x_max":419,"o":"m 44 298 l 44 421 l 419 421 l 419 298 l 44 298 z "},".":{"ha":387,"x_min":123,"x_max":262,"o":"m 123 0 l 123 139 l 262 139 l 262 0 l 123 0 z "},"/":{"ha":386,"x_min":0,"x_max":386,"o":"m 0 -17 l 288 1011 l 386 1011 l 98 -17 l 0 -17 z "},":":{"ha":387,"x_min":123,"x_max":262,"o":"m 123 581 l 123 720 l 262 720 l 262 581 l 123 581 m 123 0 l 123 139 l 262 139 l 262 0 l 123 0 z "},";":{"ha":387,"x_min":113,"x_max":260,"o":"m 121 581 l 121 720 l 260 720 l 260 581 l 121 581 m 121 0 l 121 139 l 260 139 l 260 0 q 146 -197 260 -147 l 113 -144 q 190 0 189 -113 l 121 0 z "},"<":{"ha":811,"x_min":77,"x_max":735,"o":"m 77 435 l 77 549 l 735 827 l 735 705 l 213 491 l 735 275 l 735 153 l 77 435 z "},"=":{"ha":811,"x_min":77,"x_max":734,"o":"m 734 585 l 77 585 l 77 699 l 734 699 l 734 585 m 734 283 l 77 283 l 77 397 l 734 397 l 734 283 z "},">":{"ha":811,"x_min":77,"x_max":735,"o":"m 735 435 l 77 153 l 77 275 l 598 491 l 77 705 l 77 827 l 735 549 l 735 435 z "},"?":{"ha":772,"x_min":64,"x_max":705,"o":"m 323 245 q 322 284 322 270 q 356 436 322 379 q 480 572 390 492 q 558 653 536 620 q 580 732 580 687 q 525 857 580 802 q 388 911 469 911 q 189 709 220 911 l 64 724 q 166 939 80 866 q 386 1011 253 1011 q 615 934 525 1011 q 705 740 705 857 q 680 628 705 681 q 555 486 654 574 q 461 381 480 420 q 440 245 442 342 l 323 245 m 315 0 l 315 139 l 454 139 l 454 0 l 315 0 z "},"@":{"ha":1410,"x_min":79,"x_max":1363,"o":"m 791 111 q 583 -2 692 -2 q 409 83 481 -2 q 337 299 337 169 q 445 599 337 463 q 689 735 553 735 q 805 704 753 735 q 894 610 856 673 l 917 715 l 1038 715 l 941 260 q 920 155 920 165 q 935 123 920 135 q 968 111 950 111 q 1067 155 1002 111 q 1181 291 1133 199 q 1230 486 1230 382 q 1090 793 1230 673 q 743 913 950 913 q 336 744 494 913 q 179 330 179 574 q 252 43 179 165 q 463 -136 324 -79 q 766 -192 602 -192 q 1062 -132 940 -192 q 1240 13 1183 -72 l 1363 13 q 1153 -198 1307 -104 q 764 -292 998 -292 q 256 -124 433 -292 q 79 318 79 43 q 251 801 79 589 q 749 1013 423 1013 q 1173 856 1017 1013 q 1330 484 1330 699 q 1202 146 1330 294 q 922 -3 1074 -3 q 826 26 859 -3 q 791 111 793 54 m 463 294 q 506 152 463 205 q 608 98 549 98 q 778 202 700 98 q 855 437 855 306 q 811 581 855 528 q 698 634 768 634 q 529 521 596 634 q 463 294 463 408 z "},"A":{"ha":927,"x_min":-1,"x_max":930,"o":"m -1 0 l 381 994 l 523 994 l 930 0 l 780 0 l 664 301 l 248 301 l 139 0 l -1 0 m 286 408 l 623 408 l 519 684 q 449 890 470 815 q 395 700 430 794 l 286 408 z "},"B":{"ha":927,"x_min":102,"x_max":853,"o":"m 102 0 l 102 994 l 475 994 q 720 925 635 994 q 805 740 805 855 q 770 616 805 669 q 666 529 736 564 q 802 441 751 506 q 853 288 853 377 q 768 81 853 162 q 481 0 684 0 l 102 0 m 234 576 l 449 576 q 621 608 567 576 q 675 725 675 640 q 625 842 675 808 q 433 877 574 877 l 234 877 l 234 576 m 234 117 l 481 117 q 660 158 603 117 q 717 287 717 199 q 656 419 717 378 q 464 459 595 459 l 234 459 l 234 117 z "},"C":{"ha":1003,"x_min":71,"x_max":950,"o":"m 819 349 l 950 315 q 800 68 909 153 q 538 -17 690 -17 q 184 134 298 -17 q 71 505 71 286 q 202 877 71 743 q 541 1011 333 1011 q 792 934 690 1011 q 933 722 895 857 l 804 691 q 545 899 736 899 q 291 792 376 899 q 207 509 207 685 q 295 197 207 298 q 528 96 384 96 q 715 159 637 96 q 819 349 793 223 z "},"D":{"ha":1003,"x_min":109,"x_max":931,"o":"m 109 0 l 109 994 l 452 994 q 652 974 576 994 q 794 891 729 954 q 895 731 859 828 q 931 505 931 633 q 865 204 931 324 q 700 42 800 83 q 468 0 600 0 l 109 0 m 241 117 l 453 117 q 638 148 570 117 q 751 268 707 178 q 795 505 795 359 q 747 739 795 652 q 632 851 699 826 q 450 877 566 877 l 241 877 l 241 117 z "},"E":{"ha":927,"x_min":110,"x_max":852,"o":"m 110 0 l 110 994 l 829 994 l 829 877 l 241 877 l 241 572 l 791 572 l 791 456 l 241 456 l 241 117 l 852 117 l 852 0 l 110 0 z "},"F":{"ha":850,"x_min":111,"x_max":782,"o":"m 111 0 l 111 994 l 782 994 l 782 877 l 243 877 l 243 569 l 709 569 l 709 452 l 243 452 l 243 0 l 111 0 z "},"G":{"ha":1080,"x_min":72,"x_max":991,"o":"m 570 390 l 570 507 l 991 507 l 991 138 q 793 22 896 61 q 580 -17 690 -17 q 209 123 347 -17 q 72 492 72 263 q 201 865 72 719 q 570 1011 330 1011 q 977 716 902 1011 l 858 684 q 570 899 805 899 q 296 785 385 899 q 208 504 208 671 q 309 201 208 300 q 572 102 411 102 q 747 138 664 102 q 863 205 829 174 l 863 390 l 570 390 z "},"H":{"ha":1003,"x_min":111,"x_max":891,"o":"m 111 0 l 111 994 l 243 994 l 243 586 l 760 586 l 760 994 l 891 994 l 891 0 l 760 0 l 760 469 l 243 469 l 243 0 l 111 0 z "},"I":{"ha":387,"x_min":127,"x_max":259,"o":"m 127 0 l 127 994 l 259 994 l 259 0 l 127 0 z "},"J":{"ha":694,"x_min":37,"x_max":587,"o":"m 40 282 l 159 298 q 307 100 163 100 q 421 147 387 100 q 455 309 455 193 l 455 994 l 587 994 l 587 317 q 506 51 587 119 q 307 -17 425 -17 q 106 59 175 -17 q 40 282 37 135 z "},"K":{"ha":927,"x_min":102,"x_max":924,"o":"m 102 0 l 102 994 l 234 994 l 234 501 l 728 994 l 906 994 l 489 591 l 924 0 l 751 0 l 397 503 l 234 345 l 234 0 l 102 0 z "},"L":{"ha":772,"x_min":104,"x_max":726,"o":"m 104 0 l 104 994 l 236 994 l 236 117 l 726 117 l 726 0 l 104 0 z "},"M":{"ha":1157,"x_min":104,"x_max":1053,"o":"m 104 0 l 104 994 l 302 994 l 538 290 l 585 143 q 638 302 600 191 l 876 994 l 1053 994 l 1053 0 l 926 0 l 926 832 l 637 0 l 519 0 l 231 846 l 231 0 l 104 0 z "},"N":{"ha":1003,"x_min":110,"x_max":893,"o":"m 110 0 l 110 994 l 245 994 l 767 214 l 767 994 l 893 994 l 893 0 l 758 0 l 236 781 l 236 0 l 110 0 z "},"O":{"ha":1080,"x_min":65,"x_max":1016,"o":"m 65 484 q 199 872 65 732 q 541 1012 332 1012 q 883 870 751 1012 q 1016 496 1016 728 q 882 124 1016 265 q 541 -17 749 -17 q 278 58 391 -17 q 115 251 165 133 q 65 484 65 368 m 201 482 q 293 204 201 312 q 540 96 385 96 q 786 202 692 96 q 880 496 880 309 q 785 792 880 686 q 542 899 690 899 q 298 799 396 899 q 201 482 201 699 z "},"P":{"ha":927,"x_min":107,"x_max":866,"o":"m 107 0 l 107 994 l 482 994 q 688 972 611 994 q 815 879 764 949 q 866 707 866 808 q 784 491 866 578 q 494 404 702 404 l 239 404 l 239 0 l 107 0 m 239 522 l 496 522 q 672 567 613 522 q 730 703 730 612 q 699 810 730 766 q 624 865 667 854 q 493 877 582 877 l 239 877 l 239 522 z "},"Q":{"ha":1080,"x_min":65,"x_max":1035,"o":"m 866 106 q 1035 14 970 37 l 996 -77 q 783 45 888 -39 q 538 -17 672 -17 q 193 132 321 -17 q 65 497 65 281 q 196 867 65 723 q 541 1012 326 1012 q 798 941 688 1012 q 962 754 908 870 q 1016 498 1016 638 q 866 106 1016 252 m 576 275 q 764 180 691 243 q 880 498 880 286 q 790 788 880 678 q 542 899 700 899 q 297 797 393 899 q 201 497 201 694 q 294 202 201 309 q 540 96 388 96 q 675 122 613 96 q 545 179 612 163 l 576 275 z "},"R":{"ha":1003,"x_min":111,"x_max":987,"o":"m 111 0 l 111 994 l 552 994 q 739 973 668 994 q 858 884 809 952 q 906 723 906 816 q 835 542 906 614 q 626 452 764 469 q 814 271 724 411 l 987 0 l 822 0 l 690 207 q 536 405 587 368 q 395 441 485 441 l 243 441 l 243 0 l 111 0 m 243 555 l 526 555 q 709 597 648 555 q 770 722 770 639 q 724 835 770 786 q 557 884 677 884 l 243 884 l 243 555 z "},"S":{"ha":927,"x_min":62,"x_max":854,"o":"m 62 319 l 186 330 q 283 155 198 209 q 477 101 369 101 q 660 146 592 101 q 727 270 727 192 q 699 353 727 319 q 619 407 670 388 q 426 460 568 427 q 242 520 305 490 q 140 606 180 550 q 100 737 100 663 q 195 934 100 857 q 450 1011 290 1011 q 719 932 621 1011 q 824 714 818 853 l 698 705 q 457 895 682 895 q 288 856 348 895 q 227 746 227 816 q 273 653 227 685 q 463 587 317 621 q 689 522 614 553 q 809 428 764 490 q 854 281 854 365 q 752 66 854 150 q 486 -17 651 -17 q 171 78 277 -17 q 62 319 65 172 z "},"T":{"ha":850,"x_min":30,"x_max":818,"o":"m 357 0 l 357 877 l 30 877 l 30 994 l 818 994 l 818 877 l 489 877 l 489 0 l 357 0 z "},"U":{"ha":1003,"x_min":111,"x_max":892,"o":"m 761 994 l 892 994 l 892 420 q 859 182 892 273 q 734 37 825 92 q 502 -17 644 -17 q 201 86 292 -17 q 111 420 111 190 l 111 994 l 242 994 l 242 420 q 267 228 242 291 q 352 134 292 165 q 490 102 412 102 q 700 168 639 102 q 761 420 761 235 l 761 994 z "},"V":{"ha":927,"x_min":7,"x_max":916,"o":"m 392 0 l 7 994 l 149 994 l 408 272 q 460 109 441 178 q 513 272 483 191 l 782 994 l 916 994 l 527 0 l 392 0 z "},"W":{"ha":1311,"x_min":14,"x_max":1293,"o":"m 278 0 l 14 994 l 149 994 l 300 342 q 342 139 326 233 l 387 323 l 576 994 l 735 994 l 878 491 q 955 139 930 304 q 1004 355 974 233 l 1160 994 l 1293 994 l 1020 0 l 893 0 l 684 758 l 652 874 q 623 758 637 809 l 412 0 l 278 0 z "},"X":{"ha":927,"x_min":6,"x_max":918,"o":"m 6 0 l 391 518 l 52 994 l 208 994 l 389 739 q 469 617 449 654 q 547 730 502 671 l 747 994 l 890 994 l 541 526 l 918 0 l 755 0 l 505 355 q 461 421 482 387 q 414 347 431 370 l 164 0 l 6 0 z "},"Y":{"ha":927,"x_min":4,"x_max":916,"o":"m 387 0 l 387 421 l 4 994 l 164 994 l 360 694 q 461 526 418 606 q 570 702 506 604 l 762 994 l 916 994 l 519 421 l 519 0 l 387 0 z "},"Z":{"ha":850,"x_min":25,"x_max":811,"o":"m 25 0 l 25 122 l 534 759 q 637 877 589 827 l 83 877 l 83 994 l 795 994 l 795 877 l 237 187 q 176 117 207 152 l 811 117 l 811 0 l 25 0 z "},"[":{"ha":387,"x_min":92,"x_max":361,"o":"m 92 -276 l 92 994 l 361 994 l 361 893 l 214 893 l 214 -175 l 361 -175 l 361 -276 l 92 -276 z "},"\\":{"ha":386,"x_min":0,"x_max":386,"o":"m 288 -17 l 0 1011 l 98 1011 l 386 -17 l 288 -17 z "},"]":{"ha":387,"x_min":24,"x_max":294,"o":"m 294 -276 l 24 -276 l 24 -175 l 172 -175 l 172 893 l 24 893 l 24 994 l 294 994 l 294 -276 z "},"^":{"ha":652,"x_min":37,"x_max":615,"o":"m 162 468 l 37 468 l 276 1011 l 374 1011 l 615 468 l 492 468 l 325 873 l 162 468 z "},"_":{"ha":772,"x_min":-8,"x_max":781,"o":"m -8 -276 l -8 -188 l 781 -188 l 781 -276 l -8 -276 z "},"`":{"ha":463,"x_min":60,"x_max":315,"o":"m 315 810 l 217 810 l 60 1000 l 224 1000 l 315 810 z "},"a":{"ha":772,"x_min":53,"x_max":716,"o":"m 564 89 q 437 10 503 37 q 299 -16 371 -16 q 119 40 185 -16 q 53 190 53 97 q 123 345 53 290 q 336 415 193 398 q 554 457 484 433 q 555 489 555 482 q 517 598 555 560 q 381 635 479 635 q 254 605 294 635 q 193 498 213 575 l 74 515 q 394 736 113 736 q 580 701 515 736 q 661 614 644 665 q 677 465 677 564 l 677 302 q 684 94 677 141 q 716 0 690 46 l 589 0 q 564 89 569 38 m 554 361 q 355 315 488 334 q 220 274 257 301 q 183 193 183 247 q 221 112 183 144 q 328 79 258 79 q 454 111 399 79 q 532 190 510 142 q 554 317 554 238 l 554 361 z "},"b":{"ha":772,"x_min":94,"x_max":718,"o":"m 207 0 l 94 0 l 94 994 l 216 994 l 216 640 q 302 712 253 688 q 412 736 351 736 q 634 635 551 736 q 718 371 718 534 q 627 85 718 187 q 406 -16 536 -16 q 293 11 342 -16 q 207 90 243 37 l 207 0 m 205 366 q 228 202 205 253 q 294 118 251 151 q 397 84 338 84 q 540 160 487 84 q 593 361 593 236 q 546 558 593 481 q 402 636 498 636 q 257 557 309 636 q 205 366 205 479 z "},"c":{"ha":694,"x_min":54,"x_max":682,"o":"m 562 264 l 682 248 q 580 54 664 123 q 386 -16 496 -16 q 140 85 225 -16 q 54 357 54 187 q 144 640 54 543 q 382 736 234 736 q 569 681 489 736 q 670 509 650 625 l 551 490 q 388 636 517 636 q 235 567 291 636 q 180 364 180 498 q 230 154 180 224 q 380 84 280 84 q 562 264 536 84 z "},"d":{"ha":772,"x_min":50,"x_max":675,"o":"m 562 0 l 562 91 q 477 11 528 37 q 361 -16 427 -16 q 137 90 223 -16 q 50 359 50 195 q 134 635 50 533 q 355 736 217 736 q 468 712 418 736 q 553 637 517 687 l 553 994 l 675 994 l 675 0 l 562 0 m 176 359 q 229 158 176 232 q 372 84 283 84 q 506 148 448 84 q 564 351 564 212 q 513 557 564 479 q 366 635 462 635 q 226 563 277 635 q 176 359 176 490 z "},"e":{"ha":772,"x_min":54,"x_max":718,"o":"m 587 232 l 713 216 q 606 47 686 111 q 397 -16 525 -16 q 144 83 235 -16 q 54 354 54 182 q 144 632 54 527 q 390 736 234 736 q 627 636 536 736 q 718 360 718 536 q 717 329 718 351 l 180 329 q 244 150 185 216 q 397 84 303 84 q 587 232 537 84 m 186 429 l 589 429 q 524 586 582 536 q 391 636 465 636 q 246 575 300 636 q 186 429 191 514 z "},"f":{"ha":387,"x_min":11,"x_max":432,"o":"m 119 0 l 119 625 l 11 625 l 11 720 l 119 720 l 119 797 q 137 918 119 875 q 201 986 155 961 q 318 1011 247 1011 q 432 999 370 1011 l 414 892 q 340 899 380 899 q 267 879 294 899 q 240 787 240 859 l 240 720 l 380 720 l 380 625 l 240 625 l 240 0 l 119 0 z "},"g":{"ha":772,"x_min":47,"x_max":682,"o":"m 72 -60 l 191 -77 q 356 -191 202 -191 q 485 -159 438 -191 q 545 -77 532 -126 q 558 94 558 -28 q 469 24 519 47 q 361 0 420 0 q 130 107 212 0 q 47 363 47 214 q 130 631 47 526 q 361 736 212 736 q 476 711 424 736 q 570 633 528 685 l 570 720 l 682 720 l 682 98 q 651 -133 682 -59 q 542 -250 620 -207 q 359 -292 465 -292 q 142 -229 214 -292 q 72 -60 69 -165 m 173 373 q 231 165 173 229 q 370 101 288 101 q 513 168 458 101 q 568 372 568 235 q 516 561 568 487 q 368 635 463 635 q 227 565 280 635 q 173 373 173 495 z "},"h":{"ha":772,"x_min":94,"x_max":680,"o":"m 94 0 l 94 994 l 216 994 l 216 637 q 311 712 257 687 q 433 736 366 736 q 616 673 553 736 q 680 456 680 610 l 680 0 l 558 0 l 558 456 q 520 588 558 544 q 406 631 482 631 q 277 585 339 631 q 216 394 216 538 l 216 0 l 94 0 z "},"i":{"ha":309,"x_min":93,"x_max":215,"o":"m 93 854 l 93 994 l 215 994 l 215 854 l 93 854 m 93 0 l 93 720 l 215 720 l 215 0 l 93 0 z "},"j":{"ha":309,"x_min":-61,"x_max":216,"o":"m 94 852 l 94 994 l 216 994 l 216 852 l 94 852 m -61 -279 l -38 -176 q 20 -185 -3 -185 q 78 -157 62 -185 q 94 -37 94 -129 l 94 720 l 216 720 l 216 -39 q 176 -233 216 -173 q 35 -292 136 -292 q -61 -279 -15 -292 z "},"k":{"ha":694,"x_min":92,"x_max":689,"o":"m 92 0 l 92 994 l 214 994 l 214 427 l 503 720 l 661 720 l 386 453 l 689 0 l 538 0 l 300 368 l 214 286 l 214 0 l 92 0 z "},"l":{"ha":309,"x_min":92,"x_max":214,"o":"m 92 0 l 92 994 l 214 994 l 214 0 l 92 0 z "},"m":{"ha":1157,"x_min":91,"x_max":1067,"o":"m 91 0 l 91 720 l 200 720 l 200 619 q 294 707 239 678 q 420 736 349 736 q 549 705 498 736 q 622 610 600 673 q 719 705 663 673 q 844 736 774 736 q 1011 676 956 736 q 1067 494 1067 616 l 1067 0 l 945 0 l 945 454 q 916 590 945 549 q 818 631 886 631 q 690 579 739 631 q 641 418 641 528 l 641 0 l 519 0 l 519 468 q 487 590 519 549 q 390 631 454 631 q 269 584 324 631 q 213 374 213 536 l 213 0 l 91 0 z "},"n":{"ha":772,"x_min":94,"x_max":680,"o":"m 94 0 l 94 720 l 204 720 l 204 618 q 301 707 244 677 q 433 736 359 736 q 581 699 522 736 q 660 605 641 661 q 680 443 680 549 l 680 0 l 557 0 l 557 438 q 522 585 557 538 q 406 631 487 631 q 272 580 327 631 q 216 393 216 529 l 216 0 l 94 0 z "},"o":{"ha":772,"x_min":49,"x_max":724,"o":"m 49 360 q 148 645 49 554 q 387 736 247 736 q 632 636 541 736 q 724 370 724 536 q 630 80 724 176 q 387 -16 536 -16 q 146 77 243 -16 q 49 360 49 170 m 174 360 q 234 154 174 224 q 387 84 294 84 q 538 154 479 84 q 598 364 598 224 q 540 564 598 492 q 387 635 481 635 q 234 566 294 635 q 174 360 174 496 z "},"p":{"ha":772,"x_min":94,"x_max":720,"o":"m 94 -276 l 94 720 l 205 720 l 205 627 q 295 709 243 682 q 413 736 347 736 q 638 633 556 736 q 720 374 720 529 q 631 89 720 194 q 405 -16 543 -16 q 300 6 347 -16 q 216 75 253 29 l 216 -276 l 94 -276 m 205 356 q 255 158 205 231 q 397 84 304 84 q 537 153 479 84 q 595 369 595 222 q 541 568 595 496 q 403 641 488 641 q 260 562 316 641 q 205 356 205 482 z "},"q":{"ha":772,"x_min":52,"x_max":675,"o":"m 553 -276 l 553 77 q 478 12 530 41 q 365 -16 425 -16 q 139 92 226 -16 q 52 367 52 201 q 135 636 52 535 q 357 736 218 736 q 475 708 423 736 q 566 624 528 680 l 566 720 l 675 720 l 675 -276 l 553 -276 m 177 362 q 231 159 177 233 q 375 84 286 84 q 509 150 452 84 q 566 353 566 216 q 513 558 566 475 q 367 640 460 640 q 228 567 279 640 q 177 362 177 494 z "},"r":{"ha":463,"x_min":90,"x_max":481,"o":"m 90 0 l 90 720 l 200 720 l 200 611 q 272 705 233 674 q 356 736 311 736 q 481 697 419 736 l 439 584 q 350 610 395 610 q 247 552 281 610 q 212 377 212 494 l 212 0 l 90 0 z "},"s":{"ha":694,"x_min":43,"x_max":641,"o":"m 43 215 l 163 234 q 350 84 184 84 q 473 118 431 84 q 515 199 515 151 q 485 260 515 240 q 355 305 454 280 q 181 358 235 336 q 95 425 126 381 q 63 529 63 469 q 137 680 63 624 q 326 736 210 736 q 519 693 440 736 q 614 534 597 649 l 494 518 q 337 636 477 636 q 223 612 264 636 q 181 543 181 588 q 211 485 181 503 q 351 437 240 467 q 530 381 475 404 q 613 314 585 358 q 641 212 641 271 q 563 49 641 115 q 351 -16 484 -16 q 43 215 83 -16 z "},"t":{"ha":387,"x_min":22,"x_max":374,"o":"m 356 109 l 374 1 q 282 -9 324 -9 q 172 15 211 -9 q 122 79 133 39 q 112 211 112 119 l 112 625 l 22 625 l 22 720 l 112 720 l 112 899 l 233 972 l 233 720 l 356 720 l 356 625 l 233 625 l 233 204 q 246 125 233 146 q 302 104 259 104 q 356 109 324 104 z "},"u":{"ha":772,"x_min":92,"x_max":675,"o":"m 566 0 l 566 106 q 467 14 524 45 q 337 -16 410 -16 q 192 22 252 -16 q 112 116 132 60 q 92 274 92 173 l 92 720 l 214 720 l 214 321 q 222 186 214 227 q 269 117 231 146 q 362 89 306 89 q 503 145 452 89 q 553 334 553 201 l 553 720 l 675 720 l 675 0 l 566 0 z "},"v":{"ha":694,"x_min":18,"x_max":678,"o":"m 292 0 l 18 720 l 146 720 l 301 289 q 347 144 328 216 q 393 281 361 196 l 553 720 l 678 720 l 406 0 l 292 0 z "},"w":{"ha":1003,"x_min":7,"x_max":995,"o":"m 227 0 l 7 720 l 133 720 l 248 304 l 290 150 q 328 298 293 161 l 442 720 l 568 720 l 675 302 l 711 165 l 753 304 l 876 720 l 995 720 l 770 0 l 643 0 l 528 431 q 500 554 514 493 l 355 0 l 227 0 z "},"x":{"ha":694,"x_min":10,"x_max":684,"o":"m 10 0 l 273 374 l 30 720 l 182 720 l 293 551 q 343 471 328 498 q 398 550 368 508 l 519 720 l 665 720 l 416 381 l 684 0 l 534 0 l 387 224 l 347 284 l 158 0 l 10 0 z "},"y":{"ha":694,"x_min":22,"x_max":682,"o":"m 86 -277 l 73 -163 q 143 -174 111 -174 q 228 -146 201 -174 q 285 -31 254 -119 q 296 -1 288 -21 l 22 720 l 154 720 l 304 303 q 356 136 334 220 q 406 300 376 218 l 560 720 l 682 720 l 408 -12 q 299 -235 346 -178 q 165 -292 252 -292 q 86 -277 128 -292 z "},"z":{"ha":694,"x_min":27,"x_max":665,"o":"m 27 0 l 27 99 l 486 625 q 348 621 414 621 l 54 621 l 54 720 l 643 720 l 643 640 l 253 182 q 178 99 215 141 q 332 105 260 105 l 665 105 l 665 0 l 27 0 z "},"{":{"ha":463,"x_min":39,"x_max":432,"o":"m 39 415 q 150 472 120 417 q 180 677 180 526 q 196 893 180 833 q 260 982 213 954 q 394 1011 307 1011 l 432 1011 l 432 905 l 411 905 q 319 881 343 905 q 294 766 294 857 q 288 544 294 607 q 250 436 281 480 q 153 359 219 391 q 258 269 222 332 q 294 54 294 205 q 298 -114 294 -77 q 325 -168 302 -150 q 411 -186 347 -186 l 432 -186 l 432 -292 l 394 -292 q 258 -262 294 -292 q 201 -188 222 -232 q 180 41 180 -144 q 150 248 180 193 q 39 304 121 302 l 39 415 z "},"|":{"ha":361,"x_min":127,"x_max":234,"o":"m 127 -292 l 127 1011 l 234 1011 l 234 -292 l 127 -292 z "},"}":{"ha":463,"x_min":32,"x_max":425,"o":"m 425 415 l 425 304 q 314 248 344 302 q 284 41 284 193 q 268 -174 284 -114 q 204 -263 251 -235 q 70 -292 157 -292 l 32 -292 l 32 -186 l 53 -186 q 145 -162 121 -186 q 170 -46 170 -138 q 177 179 170 117 q 218 288 184 242 q 311 359 252 334 q 198 465 227 397 q 170 665 170 533 q 165 832 170 796 q 139 887 161 869 q 53 905 117 905 l 32 905 l 32 1011 l 70 1011 q 206 981 170 1011 q 263 907 241 951 q 284 677 284 863 q 314 472 284 527 q 425 415 343 417 z "},"~":{"ha":811,"x_min":59,"x_max":753,"o":"m 59 378 l 59 517 q 248 598 131 598 q 460 539 323 598 q 578 507 536 507 q 753 600 664 507 l 753 456 q 565 379 672 379 q 399 420 493 379 q 236 470 290 470 q 149 449 187 470 q 59 378 111 427 z "},"А":{"ha":928,"x_min":-1,"x_max":929,"o":"m -1 0 l 380 994 l 522 994 l 929 0 l 779 0 l 663 301 l 248 301 l 138 0 l -1 0 m 286 408 l 623 408 l 519 684 q 448 890 469 815 q 395 700 429 794 l 286 408 z "},"Б":{"ha":911,"x_min":113,"x_max":863,"o":"m 113 994 l 758 994 l 758 877 l 245 877 l 245 570 l 482 570 q 691 545 614 570 q 816 451 769 520 q 863 289 863 381 q 829 148 863 214 q 729 41 795 83 q 503 0 663 0 l 113 0 l 113 994 m 245 112 l 508 112 q 668 155 614 112 q 721 286 721 199 q 690 389 721 347 q 606 444 660 430 q 420 457 551 457 l 245 457 l 245 112 z "},"В":{"ha":928,"x_min":103,"x_max":854,"o":"m 103 0 l 103 994 l 476 994 q 721 925 636 994 q 806 740 806 855 q 771 616 806 669 q 667 529 736 564 q 803 441 752 506 q 854 288 854 377 q 769 81 854 162 q 482 0 684 0 l 103 0 m 235 576 l 450 576 q 622 608 568 576 q 676 725 676 640 q 625 842 676 808 q 433 877 574 877 l 235 877 l 235 576 m 235 117 l 482 117 q 661 158 604 117 q 718 287 718 199 q 656 419 718 378 q 465 459 595 459 l 235 459 l 235 117 z "},"Г":{"ha":752,"x_min":109,"x_max":752,"o":"m 109 994 l 752 994 l 752 877 l 241 877 l 241 0 l 109 0 l 109 994 z "},"Д":{"ha":941,"x_min":0,"x_max":892,"o":"m 197 994 l 802 994 l 802 117 l 892 117 l 892 -232 l 774 -232 l 774 0 l 117 0 l 117 -232 l 0 -232 l 0 117 l 77 117 q 197 849 197 298 l 197 994 m 671 877 l 324 877 l 324 826 q 301 479 324 699 q 212 117 279 259 l 671 117 l 671 877 z "},"Е":{"ha":928,"x_min":111,"x_max":852,"o":"m 111 0 l 111 994 l 829 994 l 829 877 l 242 877 l 242 572 l 792 572 l 792 456 l 242 456 l 242 117 l 852 117 l 852 0 l 111 0 z "},"Ж":{"ha":1282,"x_min":5,"x_max":1277,"o":"m 709 994 l 709 559 q 842 594 806 559 q 935 762 878 630 q 1003 900 976 859 q 1079 967 1029 940 q 1187 995 1128 995 q 1267 994 1252 995 l 1267 880 q 1242 880 1261 880 q 1215 881 1220 881 q 1122 850 1152 881 q 1050 720 1090 820 q 975 573 1007 612 q 883 509 943 534 q 1072 331 981 481 l 1277 0 l 1114 0 l 948 270 q 836 421 882 377 q 709 465 791 465 l 709 0 l 574 0 l 574 465 q 459 431 509 465 q 342 283 409 397 l 334 270 l 168 0 l 5 0 l 210 331 q 399 509 303 482 q 312 567 346 530 q 231 720 278 603 q 158 854 189 827 q 67 881 127 881 l 14 880 l 14 994 q 90 995 22 995 q 203 968 155 995 q 278 901 251 941 q 348 762 305 861 q 440 594 405 628 q 574 559 476 560 l 574 994 l 709 994 z "},"З":{"ha":839,"x_min":53,"x_max":783,"o":"m 53 281 l 178 313 q 255 168 193 241 q 419 96 317 96 q 584 149 524 96 q 644 279 644 203 q 581 409 644 361 q 407 458 517 458 l 344 458 l 344 572 q 483 583 435 572 q 568 636 531 593 q 605 734 605 680 q 554 848 605 800 q 418 896 504 896 q 289 858 342 896 q 216 759 236 821 q 195 666 195 696 l 69 694 q 419 1011 116 1011 q 650 930 565 1011 q 736 741 736 849 q 604 525 736 602 q 731 439 680 504 q 783 284 783 374 q 683 70 783 156 q 420 -17 584 -17 q 53 281 138 -17 z "},"И":{"ha":998,"x_min":109,"x_max":890,"o":"m 109 994 l 229 994 l 229 207 l 758 994 l 890 994 l 890 0 l 770 0 l 770 785 l 241 0 l 109 0 l 109 994 z "},"Й":{"ha":998,"x_min":109,"x_max":890,"o":"m 280 1223 l 372 1223 q 511 1139 399 1139 q 651 1223 625 1139 l 743 1223 q 680 1103 739 1152 q 521 1053 621 1053 q 339 1105 395 1053 q 280 1223 283 1158 m 109 994 l 229 994 l 229 207 l 758 994 l 890 994 l 890 0 l 770 0 l 770 785 l 241 0 l 109 0 l 109 994 z "},"К":{"ha":809,"x_min":109,"x_max":804,"o":"m 109 994 l 241 994 l 241 559 q 368 594 331 559 q 461 762 404 629 q 529 900 503 859 q 606 967 556 940 q 715 995 655 995 q 795 994 791 995 l 795 880 q 768 880 788 880 q 742 881 747 881 q 648 850 679 881 q 577 720 617 820 q 492 561 527 594 q 410 509 458 528 q 600 331 506 482 l 804 0 l 641 0 l 475 270 q 360 424 406 382 q 241 465 314 465 l 241 0 l 109 0 l 109 994 z "},"Л":{"ha":911,"x_min":12,"x_max":802,"o":"m 180 994 l 802 994 l 802 0 l 671 0 l 671 877 l 311 877 l 311 365 q 297 136 311 209 q 235 23 282 64 q 117 -17 189 -17 q 12 -1 73 -17 l 35 116 q 90 102 67 102 q 157 136 135 102 q 180 294 180 170 l 180 994 z "},"М":{"ha":1157,"x_min":104,"x_max":1053,"o":"m 104 0 l 104 994 l 302 994 l 538 290 l 585 143 q 638 302 600 191 l 876 994 l 1053 994 l 1053 0 l 926 0 l 926 832 l 637 0 l 519 0 l 231 846 l 231 0 l 104 0 z "},"Н":{"ha":1003,"x_min":111,"x_max":891,"o":"m 111 0 l 111 994 l 243 994 l 243 586 l 760 586 l 760 994 l 891 994 l 891 0 l 760 0 l 760 469 l 243 469 l 243 0 l 111 0 z "},"О":{"ha":1080,"x_min":65,"x_max":1016,"o":"m 65 484 q 199 872 65 732 q 541 1012 332 1012 q 883 870 751 1012 q 1016 496 1016 728 q 882 124 1016 265 q 541 -17 749 -17 q 278 58 391 -17 q 115 251 165 133 q 65 484 65 368 m 201 482 q 293 204 201 312 q 540 96 385 96 q 786 202 692 96 q 880 496 880 309 q 785 792 880 686 q 542 899 690 899 q 298 799 396 899 q 201 482 201 699 z "},"П":{"ha":998,"x_min":109,"x_max":890,"o":"m 109 994 l 890 994 l 890 0 l 758 0 l 758 877 l 240 877 l 240 0 l 109 0 l 109 994 z "},"Р":{"ha":928,"x_min":108,"x_max":867,"o":"m 108 0 l 108 994 l 483 994 q 688 972 612 994 q 816 879 765 949 q 867 707 867 808 q 785 491 867 578 q 494 404 703 404 l 239 404 l 239 0 l 108 0 m 239 522 l 496 522 q 672 567 614 522 q 731 703 731 612 q 699 810 731 766 q 625 865 667 854 q 494 877 583 877 l 239 877 l 239 522 z "},"С":{"ha":1003,"x_min":71,"x_max":950,"o":"m 819 349 l 950 315 q 800 68 909 153 q 538 -17 690 -17 q 184 134 298 -17 q 71 505 71 286 q 202 877 71 743 q 541 1011 333 1011 q 792 934 690 1011 q 933 722 895 857 l 804 691 q 545 899 736 899 q 291 792 376 899 q 207 509 207 685 q 295 197 207 298 q 528 96 384 96 q 715 159 637 96 q 819 349 793 223 z "},"Т":{"ha":852,"x_min":32,"x_max":820,"o":"m 359 0 l 359 877 l 32 877 l 32 994 l 820 994 l 820 877 l 491 877 l 491 0 l 359 0 z "},"У":{"ha":882,"x_min":7,"x_max":878,"o":"m 7 994 l 140 994 l 464 385 l 747 994 l 878 994 l 505 221 q 391 31 435 76 q 262 -14 346 -14 q 138 10 212 -14 l 138 123 q 250 92 191 92 q 333 123 298 92 q 410 264 368 154 l 7 994 z "},"Ф":{"ha":1056,"x_min":56,"x_max":1000,"o":"m 467 875 l 467 1002 l 590 1002 l 590 875 q 890 761 780 865 q 1000 502 1000 656 q 893 245 1000 351 q 590 128 787 139 l 590 0 l 467 0 l 467 128 q 173 236 290 135 q 56 502 56 336 q 173 768 56 668 q 467 875 290 867 m 590 762 l 590 241 q 791 315 718 248 q 864 502 864 383 q 792 687 864 618 q 590 762 720 755 m 467 762 q 268 689 344 756 q 192 502 192 622 q 267 315 192 383 q 467 242 342 248 l 467 762 z "},"Х":{"ha":928,"x_min":7,"x_max":918,"o":"m 7 0 l 391 518 l 52 994 l 209 994 l 389 739 q 469 617 450 654 q 548 730 503 671 l 748 994 l 891 994 l 542 526 l 918 0 l 755 0 l 505 355 q 462 421 483 387 q 414 347 431 370 l 165 0 l 7 0 z "},"Ц":{"ha":1027,"x_min":108,"x_max":981,"o":"m 108 994 l 239 994 l 239 117 l 758 117 l 758 994 l 890 994 l 890 117 l 981 117 l 981 -276 l 864 -276 l 864 0 l 108 0 l 108 994 z "},"Ч":{"ha":926,"x_min":59,"x_max":817,"o":"m 817 0 l 685 0 l 685 401 q 375 335 508 335 q 192 384 271 335 q 86 507 113 432 q 59 702 59 581 l 59 994 l 191 994 l 191 714 q 250 500 191 551 q 393 449 309 449 q 685 511 532 449 l 685 994 l 817 994 l 817 0 z "},"Ш":{"ha":1273,"x_min":109,"x_max":1164,"o":"m 109 994 l 241 994 l 241 117 l 571 117 l 571 994 l 703 994 l 703 117 l 1033 117 l 1033 994 l 1164 994 l 1164 0 l 109 0 l 109 994 z "},"Щ":{"ha":1302,"x_min":109,"x_max":1255,"o":"m 109 994 l 241 994 l 241 117 l 571 117 l 571 994 l 703 994 l 703 117 l 1033 117 l 1033 994 l 1164 994 l 1164 117 l 1255 117 l 1255 -276 l 1137 -276 l 1137 0 l 109 0 l 109 994 z "},"Ъ":{"ha":1099,"x_min":0,"x_max":1052,"o":"m 0 994 l 434 994 l 434 570 l 672 570 q 979 483 906 570 q 1052 288 1052 396 q 967 81 1052 163 q 680 0 883 0 l 302 0 l 302 877 l 0 877 l 0 994 m 434 112 l 675 112 q 854 154 799 112 q 910 286 910 195 q 877 390 910 348 q 790 445 844 433 q 610 456 736 456 l 434 456 l 434 112 z "},"Ы":{"ha":1230,"x_min":114,"x_max":1114,"o":"m 114 994 l 245 994 l 245 570 l 483 570 q 790 484 716 570 q 863 288 863 397 q 785 86 863 173 q 492 0 706 0 l 114 0 l 114 994 m 245 112 l 486 112 q 666 154 610 112 q 722 287 722 195 q 688 391 722 349 q 601 445 654 433 q 422 456 547 456 l 245 456 l 245 112 m 983 994 l 1114 994 l 1114 0 l 983 0 l 983 994 z "},"Ь":{"ha":911,"x_min":112,"x_max":861,"o":"m 112 994 l 243 994 l 243 570 l 481 570 q 722 531 647 570 q 829 426 796 492 q 861 289 861 359 q 783 87 861 174 q 490 0 704 0 l 112 0 l 112 994 m 243 112 l 484 112 q 675 164 631 112 q 720 289 720 216 q 687 390 720 349 q 602 444 655 432 q 420 456 548 456 l 243 456 l 243 112 z "},"Э":{"ha":998,"x_min":58,"x_max":930,"o":"m 425 572 l 425 454 l 794 454 q 701 190 787 287 q 482 94 616 94 q 184 346 245 94 l 58 313 q 473 -17 144 -17 q 819 140 708 -17 q 930 508 930 296 q 879 755 930 644 q 722 939 828 867 q 470 1011 616 1011 q 211 935 315 1011 q 71 722 107 858 l 199 688 q 471 896 256 896 q 693 806 616 896 q 789 572 770 717 l 425 572 z "},"Ю":{"ha":1403,"x_min":111,"x_max":1333,"o":"m 111 994 l 243 994 l 243 548 l 434 548 q 573 885 448 760 q 882 1011 698 1011 q 1205 874 1077 1011 q 1333 503 1333 737 q 1205 121 1333 258 q 879 -17 1078 -17 q 578 102 699 -17 q 437 431 458 221 l 243 431 l 243 0 l 111 0 l 111 994 m 566 492 q 653 200 566 304 q 881 96 740 96 q 1112 200 1025 96 q 1198 500 1198 304 q 1113 793 1198 686 q 884 900 1028 900 q 651 792 736 900 q 566 492 566 684 z "},"Я":{"ha":998,"x_min":13,"x_max":889,"o":"m 889 0 l 889 994 l 448 994 q 262 973 332 994 q 143 884 191 952 q 94 723 94 816 q 165 542 94 614 q 374 452 237 469 q 186 271 276 411 l 13 0 l 178 0 l 310 207 q 464 405 413 368 q 605 441 515 441 l 758 441 l 758 0 l 889 0 m 758 555 l 475 555 q 291 597 352 555 q 230 722 230 639 q 276 835 230 786 q 443 884 323 884 l 758 884 l 758 555 z "},"†":{"ha":772,"x_min":54,"x_max":719,"o":"m 324 -235 l 324 587 l 54 587 l 54 696 l 324 696 l 324 971 l 446 971 l 446 696 l 719 696 l 719 587 l 446 587 l 446 -235 l 324 -235 z "},"°":{"ha":555,"x_min":90,"x_max":466,"o":"m 90 823 q 145 956 90 901 q 277 1011 200 1011 q 411 956 356 1011 q 466 823 466 901 q 411 690 466 745 q 277 635 355 635 q 145 690 201 635 q 90 823 90 745 m 163 823 q 196 743 163 777 q 277 709 229 709 q 358 742 325 709 q 392 823 392 776 q 358 904 392 870 q 277 938 325 938 q 196 903 229 938 q 163 823 163 869 z "},"§":{"ha":772,"x_min":58,"x_max":711,"o":"m 100 -47 l 222 -30 q 395 -189 252 -189 q 504 -153 465 -189 q 543 -71 543 -117 q 498 14 543 -30 q 288 159 453 57 q 108 297 158 238 q 58 437 58 356 q 99 556 58 505 q 210 629 141 608 q 145 711 167 669 q 123 795 123 752 q 190 946 123 882 q 370 1011 258 1011 q 654 776 624 1011 l 527 763 q 381 911 507 911 q 282 879 321 911 q 242 803 242 846 q 252 762 242 782 q 283 721 262 741 q 474 589 323 680 q 662 450 612 505 q 711 313 711 395 q 673 197 711 241 q 557 121 635 153 q 638 32 612 79 q 665 -69 665 -16 q 590 -229 665 -165 q 396 -292 515 -292 q 194 -231 273 -292 q 100 -47 115 -170 m 496 165 q 596 292 596 216 q 555 380 596 336 q 408 488 515 422 q 270 582 310 549 q 168 450 168 524 q 197 372 168 410 q 330 272 227 332 q 496 165 433 211 z "},"•":{"ha":486,"x_min":71,"x_max":415,"o":"m 71 487 q 122 608 71 557 q 243 659 172 659 q 365 608 314 659 q 415 487 415 558 q 364 365 415 416 q 243 315 313 315 q 122 365 172 315 q 71 487 71 416 z "},"¶":{"ha":746,"x_min":-3,"x_max":747,"o":"m 271 -276 l 271 433 q 72 514 146 438 q -3 708 -3 591 q 78 916 -3 837 q 318 994 159 994 l 747 994 l 747 877 l 650 877 l 650 -276 l 534 -276 l 534 877 l 383 877 l 383 -276 l 271 -276 z "},"І":{"ha":361,"x_min":115,"x_max":247,"o":"m 115 0 l 115 994 l 247 994 l 247 0 l 115 0 z "},"®":{"ha":1023,"x_min":0,"x_max":1023,"o":"m 512 1011 q 873 861 723 1011 q 1023 499 1023 711 q 873 138 1023 289 q 512 -12 723 -12 q 150 138 300 -12 q 0 499 0 288 q 71 758 0 636 q 262 946 141 880 q 512 1011 383 1011 m 512 926 q 211 801 336 926 q 85 499 85 676 q 210 198 85 323 q 512 73 336 73 q 814 198 689 73 q 939 499 939 323 q 880 715 939 614 q 722 871 822 815 q 512 926 622 926 m 288 216 l 288 767 l 477 767 q 604 756 559 767 q 680 707 648 745 q 712 618 712 668 q 669 513 712 559 q 555 463 627 468 q 683 324 606 448 l 750 216 l 642 216 l 593 303 q 508 426 537 401 q 429 450 479 450 l 376 450 l 376 216 l 288 216 m 376 526 l 484 526 q 585 547 551 526 q 618 610 618 568 q 586 673 618 654 q 477 692 554 692 l 376 692 l 376 526 z "},"©":{"ha":1023,"x_min":0,"x_max":1023,"o":"m 512 1011 q 873 861 723 1011 q 1023 499 1023 711 q 873 138 1023 289 q 512 -12 723 -12 q 150 138 300 -12 q 0 499 0 288 q 71 758 0 636 q 262 946 141 880 q 512 1011 383 1011 m 512 926 q 211 801 336 926 q 85 499 85 676 q 210 198 85 323 q 512 73 336 73 q 814 198 689 73 q 939 499 939 323 q 880 715 939 614 q 722 871 822 815 q 512 926 622 926 m 676 416 l 760 392 q 673 257 741 308 q 514 206 606 206 q 312 291 380 206 q 244 498 244 375 q 317 709 244 631 q 518 787 389 787 q 669 743 608 787 q 749 627 730 699 l 669 607 q 515 711 627 711 q 383 650 429 711 q 336 496 336 589 q 383 341 336 396 q 508 286 430 286 q 614 320 566 286 q 676 416 662 355 z "},"™":{"ha":1389,"x_min":153,"x_max":1209,"o":"m 332 441 l 332 912 l 153 912 l 153 994 l 604 994 l 604 912 l 424 912 l 424 441 l 332 441 m 666 441 l 666 994 l 802 994 l 941 553 l 1076 994 l 1209 994 l 1209 441 l 1125 441 l 1125 905 l 983 441 l 899 441 l 751 912 l 751 441 l 666 441 z "},"Ђ":{"ha":1201,"x_min":34,"x_max":1145,"o":"m 34 994 l 827 994 l 827 877 l 496 877 l 496 568 q 795 635 668 635 q 1049 539 953 635 q 1145 306 1145 444 q 1066 84 1145 185 q 835 -17 987 -17 q 675 5 764 -17 l 696 117 q 804 92 748 92 q 959 151 906 92 q 1011 302 1011 211 q 950 461 1011 398 q 762 525 890 525 q 496 461 652 525 l 496 0 l 365 0 l 365 877 l 34 877 l 34 994 z "},"ђ":{"ha":772,"x_min":0,"x_max":678,"o":"m 92 825 l 1 825 l 0 906 l 92 906 l 92 994 l 213 994 l 213 906 l 446 906 l 446 825 l 213 825 l 213 637 q 309 712 254 687 q 431 736 363 736 q 614 674 549 736 q 678 456 678 612 l 678 -39 q 627 -247 678 -201 q 498 -292 575 -292 q 401 -279 444 -292 l 425 -176 q 481 -185 460 -185 q 535 -164 513 -185 q 556 -37 556 -142 l 556 456 q 518 588 556 544 q 403 631 479 631 q 274 585 336 631 q 213 394 213 538 l 213 0 l 92 0 l 92 825 z "},"Ѓ":{"ha":752,"x_min":109,"x_max":752,"o":"m 268 1055 l 358 1206 l 549 1206 l 371 1055 l 268 1055 m 109 994 l 752 994 l 752 877 l 241 877 l 241 0 l 109 0 l 109 994 z "},"ѓ":{"ha":507,"x_min":93,"x_max":507,"o":"m 166 810 l 256 1000 l 416 1000 l 267 810 l 166 810 m 93 720 l 507 720 l 507 619 l 215 619 l 215 0 l 93 0 l 93 720 z "},"±":{"ha":811,"x_min":77,"x_max":734,"o":"m 348 176 l 348 450 l 77 450 l 77 563 l 348 563 l 348 833 l 463 833 l 463 563 l 734 563 l 734 450 l 463 450 l 463 176 l 348 176 m 734 0 l 77 0 l 77 114 l 734 114 l 734 0 z "},"і":{"ha":309,"x_min":94,"x_max":216,"o":"m 94 854 l 94 994 l 216 994 l 216 854 l 94 854 m 94 0 l 94 720 l 216 720 l 216 0 l 94 0 z "},"µ":{"ha":786,"x_min":109,"x_max":691,"o":"m 691 720 l 691 0 l 582 0 l 582 85 q 506 9 552 35 q 399 -17 460 -17 q 305 5 347 -17 q 230 73 262 28 l 230 -276 l 109 -276 l 109 720 l 230 720 l 230 415 q 240 229 230 286 q 292 133 250 172 q 396 94 334 94 q 503 131 458 94 q 560 222 549 168 q 571 413 571 277 l 571 720 l 691 720 z "},"Ј":{"ha":694,"x_min":37,"x_max":587,"o":"m 40 282 l 159 298 q 307 100 163 100 q 421 147 387 100 q 455 309 455 193 l 455 994 l 587 994 l 587 317 q 506 51 587 119 q 307 -17 425 -17 q 106 59 175 -17 q 40 282 37 135 z "},"Є":{"ha":998,"x_min":68,"x_max":941,"o":"m 574 572 l 574 454 l 204 454 q 297 190 212 287 q 516 94 382 94 q 814 346 753 94 l 941 313 q 526 -17 854 -17 q 179 140 290 -17 q 68 508 68 296 q 119 755 68 644 q 276 939 170 867 q 528 1011 382 1011 q 787 935 683 1011 q 928 722 891 858 l 799 688 q 528 896 743 896 q 306 806 382 896 q 210 572 229 717 l 574 572 z "},"є":{"ha":709,"x_min":51,"x_max":675,"o":"m 431 419 l 431 319 l 176 319 q 237 143 188 201 q 374 84 286 84 q 556 263 528 84 l 675 248 q 577 56 656 129 q 368 -16 497 -16 q 136 86 220 -16 q 51 360 51 189 q 138 636 51 536 q 377 736 226 736 q 572 672 498 736 q 663 507 647 608 l 545 488 q 373 635 515 635 q 240 575 292 635 q 176 419 188 515 l 431 419 z "},"Ї":{"ha":387,"x_min":1,"x_max":386,"o":"m 1 1055 l 1 1194 l 131 1194 l 131 1055 l 1 1055 m 256 1055 l 256 1194 l 386 1194 l 386 1055 l 256 1055 m 127 0 l 127 994 l 259 994 l 259 0 l 127 0 z "},"ї":{"ha":376,"x_min":-2,"x_max":378,"o":"m -2 861 l -2 1000 l 125 1000 l 125 861 l -2 861 m 251 861 l 251 1000 l 378 1000 l 378 861 l 251 861 m 127 0 l 127 720 l 249 720 l 249 0 l 127 0 z "},"Љ":{"ha":1468,"x_min":9,"x_max":1417,"o":"m 799 994 l 799 570 l 1036 570 q 1276 532 1201 570 q 1383 427 1350 494 q 1417 290 1417 360 q 1369 124 1417 197 q 1253 26 1321 52 q 1056 0 1185 0 l 667 0 l 667 877 l 308 877 l 308 365 q 293 136 308 209 q 232 23 279 64 q 113 -17 185 -17 q 9 -1 70 -17 l 31 116 q 87 102 64 102 q 154 136 132 102 q 176 294 176 170 l 176 994 l 799 994 m 799 112 l 1062 112 q 1175 126 1134 112 q 1246 180 1217 140 q 1276 286 1276 220 q 1244 389 1276 347 q 1159 444 1213 431 q 975 456 1106 456 l 799 456 l 799 112 z "},"љ":{"ha":1259,"x_min":13,"x_max":1210,"o":"m 741 720 l 741 439 l 896 439 q 1127 380 1045 439 q 1210 218 1210 322 q 1143 66 1210 132 q 924 0 1077 0 l 618 0 l 618 619 l 280 619 l 280 260 q 267 93 280 142 q 216 20 254 44 q 108 -4 178 -4 q 13 0 88 -4 l 13 100 q 88 93 61 93 q 144 119 131 93 q 158 245 158 146 l 158 720 l 741 720 m 741 100 l 869 100 q 1035 129 985 100 q 1084 218 1084 157 q 1048 301 1084 265 q 886 338 1012 338 l 741 338 l 741 100 z "},"Њ":{"ha":1403,"x_min":111,"x_max":1352,"o":"m 734 994 l 734 570 l 955 570 q 1176 546 1097 570 q 1303 452 1255 522 q 1352 290 1352 382 q 1300 119 1352 193 q 1181 23 1249 46 q 983 0 1113 0 l 602 0 l 602 456 l 243 456 l 243 0 l 111 0 l 111 994 l 243 994 l 243 570 l 602 570 l 602 994 l 734 994 m 734 112 l 980 112 q 1106 124 1064 112 q 1179 177 1147 136 q 1211 286 1211 218 q 1183 385 1211 343 q 1098 441 1155 426 q 894 456 1042 456 l 734 456 l 734 112 z "},"њ":{"ha":1128,"x_min":89,"x_max":1080,"o":"m 611 420 l 766 420 q 999 364 917 420 q 1080 210 1080 308 q 1012 61 1080 122 q 794 0 943 0 l 489 0 l 489 319 l 211 319 l 211 0 l 89 0 l 89 720 l 211 720 l 211 420 l 489 420 l 489 720 l 611 720 l 611 420 m 611 96 l 739 96 q 905 122 857 96 q 954 206 954 149 q 918 285 954 251 q 755 319 882 319 l 611 319 l 611 96 z "},"ј":{"ha":309,"x_min":-61,"x_max":216,"o":"m 94 852 l 94 994 l 216 994 l 216 852 l 94 852 m -61 -279 l -38 -176 q 20 -185 -3 -185 q 78 -157 62 -185 q 94 -37 94 -129 l 94 720 l 216 720 l 216 -39 q 176 -233 216 -173 q 35 -292 136 -292 q -61 -279 -15 -292 z "},"Ѕ":{"ha":928,"x_min":63,"x_max":854,"o":"m 63 319 l 187 330 q 284 155 199 209 q 478 101 370 101 q 660 146 593 101 q 728 270 728 192 q 699 353 728 319 q 620 407 671 388 q 427 460 568 427 q 243 520 306 490 q 141 606 180 550 q 101 737 101 663 q 196 934 101 857 q 451 1011 291 1011 q 720 932 621 1011 q 825 714 819 853 l 699 705 q 458 895 683 895 q 288 856 349 895 q 228 746 228 816 q 273 653 228 685 q 464 587 318 621 q 689 522 614 553 q 809 428 764 490 q 854 281 854 365 q 753 66 854 150 q 487 -17 652 -17 q 172 78 277 -17 q 63 319 66 172 z "},"¬":{"ha":811,"x_min":77,"x_max":734,"o":"m 734 288 l 618 288 l 618 585 l 77 585 l 77 699 l 734 699 l 734 288 z "},"«":{"ha":772,"x_min":94,"x_max":675,"o":"m 233 358 l 409 49 l 310 49 l 94 358 l 310 667 l 410 667 l 233 358 m 496 358 l 675 49 l 572 49 l 359 358 l 572 667 l 675 667 l 496 358 z "},"»":{"ha":772,"x_min":98,"x_max":679,"o":"m 539 358 l 362 667 l 463 667 l 679 358 l 463 49 l 363 49 l 539 358 m 277 358 l 98 667 l 200 667 l 413 358 l 200 49 l 98 49 l 277 358 z "},"…":{"ha":1389,"x_min":162,"x_max":1227,"o":"m 162 0 l 162 139 l 301 139 l 301 0 l 162 0 m 625 0 l 625 139 l 764 139 l 764 0 l 625 0 m 1088 0 l 1088 139 l 1227 139 l 1227 0 l 1088 0 z "}," ":{"ha":386,"x_min":0,"x_max":0,"o":""},"Ћ":{"ha":1186,"x_min":33,"x_max":1123,"o":"m 33 994 l 829 994 l 829 877 l 497 877 l 497 571 q 793 635 682 635 q 981 591 901 635 q 1092 471 1061 547 q 1123 262 1123 395 l 1123 0 l 991 0 l 991 257 q 973 409 991 355 q 906 493 955 463 q 786 524 858 524 q 497 461 677 524 l 497 0 l 366 0 l 366 877 l 33 877 l 33 994 z "},"ћ":{"ha":772,"x_min":0,"x_max":678,"o":"m 92 906 l 92 994 l 213 994 l 213 906 l 446 906 l 446 825 l 213 825 l 213 637 q 309 712 254 687 q 431 736 363 736 q 614 674 549 736 q 678 456 678 612 l 678 0 l 556 0 l 556 456 q 518 588 556 544 q 403 631 479 631 q 274 585 336 631 q 213 394 213 538 l 213 0 l 92 0 l 92 825 l 1 825 l 0 906 l 92 906 z "},"Ќ":{"ha":809,"x_min":109,"x_max":804,"o":"m 310 1055 l 400 1206 l 591 1206 l 413 1055 l 310 1055 m 109 994 l 241 994 l 241 559 q 368 594 331 559 q 461 762 404 629 q 529 900 503 859 q 606 967 556 940 q 715 995 655 995 q 795 994 791 995 l 795 880 q 768 880 788 880 q 742 881 747 881 q 648 850 679 881 q 577 720 617 820 q 492 561 527 594 q 410 509 458 528 q 600 331 506 482 l 804 0 l 641 0 l 475 270 q 360 424 406 382 q 241 465 314 465 l 241 0 l 109 0 l 109 994 z "},"ќ":{"ha":608,"x_min":91,"x_max":618,"o":"m 228 810 l 318 1000 l 478 1000 l 329 810 l 228 810 m 91 720 l 213 720 l 213 409 q 295 431 271 409 q 363 562 318 454 q 422 674 399 647 q 473 711 444 701 q 567 720 503 720 l 591 720 l 591 619 l 557 620 q 496 606 509 620 q 452 517 481 591 q 401 419 425 446 q 330 370 378 392 q 485 223 409 349 l 618 0 l 484 0 l 354 223 q 284 312 314 290 q 213 333 254 333 l 213 0 l 91 0 l 91 720 z "},"ѕ":{"ha":694,"x_min":43,"x_max":641,"o":"m 43 215 l 163 234 q 350 84 184 84 q 473 118 431 84 q 515 199 515 151 q 485 260 515 240 q 355 305 454 280 q 181 358 235 336 q 95 425 126 381 q 63 529 63 469 q 137 680 63 624 q 326 736 210 736 q 519 693 440 736 q 614 534 597 649 l 494 518 q 337 636 477 636 q 223 612 264 636 q 181 543 181 588 q 211 485 181 503 q 351 437 240 467 q 530 381 475 404 q 613 314 585 358 q 641 212 641 271 q 563 49 641 115 q 351 -16 484 -16 q 43 215 83 -16 z "},"–":{"ha":772,"x_min":-8,"x_max":781,"o":"m -8 311 l -8 409 l 781 409 l 781 311 l -8 311 z "},"—":{"ha":1389,"x_min":-8,"x_max":1397,"o":"m -8 311 l -8 409 l 1397 409 l 1397 311 l -8 311 z "},"“":{"ha":463,"x_min":56,"x_max":408,"o":"m 187 827 l 187 686 l 56 686 l 56 798 q 81 935 56 886 q 168 1011 105 983 l 198 964 q 123 827 125 934 l 187 827 m 397 827 l 397 686 l 267 686 l 267 798 q 291 935 267 886 q 378 1011 315 983 l 408 964 q 334 827 335 934 l 397 827 z "},"”":{"ha":463,"x_min":47,"x_max":399,"o":"m 58 863 l 58 1004 l 189 1004 l 189 892 q 165 755 189 804 q 77 679 141 707 l 47 727 q 122 863 121 757 l 58 863 m 269 863 l 269 1004 l 399 1004 l 399 892 q 375 755 399 804 q 288 679 351 707 l 258 727 q 332 863 332 757 l 269 863 z "},"‘":{"ha":309,"x_min":89,"x_max":231,"o":"m 220 827 l 220 686 l 89 686 l 89 798 q 113 935 89 886 q 201 1011 138 983 l 231 964 q 156 827 157 934 l 220 827 z "},"’":{"ha":309,"x_min":76,"x_max":218,"o":"m 87 863 l 87 1004 l 218 1004 l 218 892 q 194 755 218 804 q 106 679 170 707 l 76 727 q 151 863 150 757 l 87 863 z "},"„":{"ha":463,"x_min":48,"x_max":400,"o":"m 59 0 l 59 142 l 190 142 l 190 30 q 166 -107 190 -59 q 78 -184 142 -155 l 48 -136 q 123 0 122 -106 l 59 0 m 269 0 l 269 142 l 400 142 l 400 30 q 376 -107 400 -59 q 288 -184 352 -155 l 258 -136 q 333 0 332 -106 l 269 0 z "},"Ў":{"ha":882,"x_min":7,"x_max":878,"o":"m 235 1223 l 327 1223 q 467 1139 353 1139 q 606 1223 578 1139 l 698 1223 q 635 1103 694 1152 q 475 1053 576 1053 q 293 1106 349 1053 q 235 1223 237 1159 m 7 994 l 140 994 l 464 385 l 747 994 l 878 994 l 505 221 q 391 31 435 76 q 262 -14 346 -14 q 138 10 212 -14 l 138 123 q 250 92 191 92 q 333 123 298 92 q 410 264 368 154 l 7 994 z "},"ў":{"ha":694,"x_min":22,"x_max":682,"o":"m 127 994 l 224 994 q 354 909 254 909 q 494 994 464 909 l 590 994 q 359 825 568 825 q 127 994 149 825 m 86 -277 l 73 -163 q 142 -174 111 -174 q 228 -146 201 -174 q 285 -31 254 -119 q 296 -1 288 -21 l 22 720 l 154 720 l 304 303 q 356 136 333 224 q 406 300 376 218 l 560 720 l 682 720 l 408 -12 q 299 -235 347 -177 q 163 -292 252 -292 q 86 -277 131 -292 z "},"Џ":{"ha":998,"x_min":109,"x_max":890,"o":"m 558 0 l 558 -276 l 441 -276 l 441 0 l 109 0 l 109 994 l 240 994 l 240 117 l 758 117 l 758 994 l 890 994 l 890 0 l 558 0 z "},"џ":{"ha":767,"x_min":92,"x_max":675,"o":"m 434 0 l 434 -276 l 333 -276 l 333 0 l 92 0 l 92 720 l 214 720 l 214 100 l 553 100 l 553 720 l 675 720 l 675 0 l 434 0 z "},"№":{"ha":1490,"x_min":109,"x_max":1432,"o":"m 109 994 l 241 994 l 727 224 l 727 994 l 852 994 l 852 0 l 721 0 l 232 767 l 232 0 l 109 0 l 109 994 m 943 532 q 1011 724 943 652 q 1190 795 1078 795 q 1366 722 1300 795 q 1432 524 1432 648 q 1364 326 1432 399 q 1184 252 1296 252 q 1016 318 1088 252 q 943 532 943 385 m 1062 528 q 1098 391 1062 437 q 1187 345 1135 345 q 1275 390 1237 345 q 1314 524 1314 434 q 1274 662 1314 619 q 1187 704 1234 704 q 1099 660 1136 704 q 1062 528 1062 616 m 956 180 l 1418 180 l 1418 80 l 956 80 l 956 180 z "},"Ё":{"ha":927,"x_min":110,"x_max":852,"o":"m 288 1055 l 288 1194 l 418 1194 l 418 1055 l 288 1055 m 543 1055 l 543 1194 l 673 1194 l 673 1055 l 543 1055 m 110 0 l 110 994 l 829 994 l 829 877 l 241 877 l 241 572 l 791 572 l 791 456 l 241 456 l 241 117 l 852 117 l 852 0 l 110 0 z "},"ё":{"ha":772,"x_min":54,"x_max":718,"o":"m 195 861 l 195 1000 l 323 1000 l 323 861 l 195 861 m 448 861 l 448 1000 l 576 1000 l 576 861 l 448 861 m 587 232 l 713 216 q 397 -16 649 -16 q 144 83 235 -16 q 54 354 54 182 q 143 631 54 526 q 390 736 233 736 q 627 637 536 736 q 718 361 718 538 q 717 329 718 351 l 180 329 q 243 151 184 218 q 397 84 302 84 q 587 232 535 84 m 186 429 l 589 429 q 524 586 582 536 q 391 635 465 635 q 246 574 300 635 q 186 429 191 513 z "},"я":{"ha":752,"x_min":21,"x_max":659,"o":"m 659 720 l 659 0 l 537 0 l 537 281 l 467 281 q 371 264 402 281 q 279 157 339 248 l 172 0 l 21 0 l 153 194 q 273 294 213 283 q 118 370 168 309 q 67 510 67 431 q 133 662 67 604 q 325 720 199 720 l 659 720 m 537 619 l 363 619 q 223 585 254 619 q 191 506 191 551 q 238 411 191 441 q 402 381 284 381 l 537 381 l 537 619 z "},"а":{"ha":772,"x_min":53,"x_max":716,"o":"m 564 89 q 437 10 503 37 q 299 -16 371 -16 q 119 40 185 -16 q 53 190 53 97 q 123 345 53 290 q 336 415 193 398 q 554 457 484 433 q 555 489 555 482 q 517 598 555 560 q 381 635 479 635 q 254 605 294 635 q 193 498 213 575 l 74 515 q 394 736 113 736 q 580 701 515 736 q 661 614 644 665 q 677 465 677 564 l 677 302 q 684 94 677 141 q 716 0 690 46 l 589 0 q 564 89 569 38 m 554 361 q 355 315 488 334 q 220 274 257 301 q 183 193 183 247 q 221 112 183 144 q 328 79 258 79 q 454 111 399 79 q 532 190 510 142 q 554 317 554 238 l 554 361 z "},"б":{"ha":795,"x_min":62,"x_max":741,"o":"m 619 1018 l 727 1017 q 695 916 720 944 q 631 879 670 887 q 478 871 592 871 q 272 842 327 871 q 193 748 217 812 q 166 583 169 684 q 274 686 212 652 q 413 720 336 720 q 648 623 555 720 q 741 359 741 526 q 694 153 741 233 q 583 28 647 72 q 408 -16 519 -16 q 209 42 280 -16 q 100 193 138 101 q 62 511 62 284 q 158 896 62 797 q 456 995 255 995 q 597 999 581 995 q 619 1018 614 1003 m 613 363 q 560 547 613 475 q 410 619 507 619 q 254 543 309 619 q 199 340 199 467 q 259 149 199 215 q 409 82 320 82 q 556 159 500 82 q 613 363 613 236 z "},"в":{"ha":738,"x_min":92,"x_max":684,"o":"m 92 720 l 374 720 q 528 703 477 720 q 615 640 578 686 q 651 529 651 593 q 630 439 651 477 q 566 375 608 401 q 650 312 616 358 q 684 201 684 265 q 614 51 684 102 q 417 0 544 0 l 92 0 l 92 720 m 214 417 l 345 417 q 452 425 422 417 q 504 458 481 433 q 527 517 527 483 q 487 597 527 574 q 349 619 446 619 l 214 619 l 214 417 m 214 100 l 375 100 q 518 127 479 100 q 558 208 558 153 q 536 272 558 242 q 477 309 513 301 q 362 317 441 317 l 214 317 l 214 100 z "},"г":{"ha":507,"x_min":92,"x_max":507,"o":"m 92 720 l 507 720 l 507 619 l 214 619 l 214 0 l 92 0 l 92 720 z "},"д":{"ha":810,"x_min":0,"x_max":768,"o":"m 188 720 l 690 720 l 690 100 l 768 100 l 768 -204 l 667 -204 l 667 0 l 100 0 l 100 -204 l 0 -204 l 0 100 l 64 100 q 188 720 193 275 m 290 619 q 181 100 276 269 l 568 100 l 568 619 l 290 619 z "},"е":{"ha":772,"x_min":54,"x_max":718,"o":"m 587 232 l 713 216 q 606 47 686 111 q 397 -16 525 -16 q 144 83 235 -16 q 54 354 54 182 q 144 632 54 527 q 390 736 234 736 q 627 636 536 736 q 718 360 718 536 q 717 329 718 351 l 180 329 q 244 150 185 216 q 397 84 303 84 q 587 232 537 84 m 186 429 l 589 429 q 524 586 582 536 q 391 636 465 636 q 246 575 300 636 q 186 429 191 514 z "},"ж":{"ha":929,"x_min":-3,"x_max":933,"o":"m 527 720 l 527 409 q 609 431 585 409 q 678 562 633 454 q 755 692 721 664 q 861 720 788 720 l 905 720 l 905 619 l 872 620 q 810 606 823 620 q 766 517 795 591 q 716 419 739 446 q 644 370 693 392 q 799 223 724 349 l 933 0 l 799 0 l 668 223 q 598 312 628 291 q 527 333 568 333 l 527 0 l 402 0 l 402 333 q 332 312 361 333 q 262 223 302 292 l 131 0 l -3 0 l 130 223 q 286 370 206 349 q 210 424 231 395 q 144 565 188 454 q 113 611 130 602 q 60 620 95 620 q 24 619 52 620 l 24 720 l 41 720 q 141 712 112 720 q 192 676 170 703 q 252 562 215 648 q 320 432 296 455 q 402 409 343 409 l 402 720 l 527 720 z "},"з":{"ha":637,"x_min":34,"x_max":587,"o":"m 251 326 l 251 421 q 356 427 328 422 q 410 460 385 433 q 435 528 435 487 q 402 607 435 577 q 317 636 369 636 q 172 515 214 636 l 56 534 q 318 736 111 736 q 499 673 433 736 q 564 523 564 610 q 479 382 564 435 q 560 308 533 353 q 587 201 587 263 q 517 44 587 104 q 319 -16 446 -16 q 34 203 73 -16 l 149 227 q 212 120 164 158 q 321 82 260 82 q 424 117 383 82 q 465 206 465 152 q 439 279 465 248 q 385 318 414 311 q 279 326 355 326 q 251 326 273 326 z "},"и":{"ha":776,"x_min":92,"x_max":684,"o":"m 92 720 l 214 720 l 214 171 l 552 720 l 684 720 l 684 0 l 562 0 l 562 546 l 223 0 l 92 0 l 92 720 z "},"й":{"ha":776,"x_min":92,"x_max":684,"o":"m 171 994 l 267 994 q 397 909 298 909 q 537 994 507 909 l 634 994 q 402 823 610 823 q 171 994 193 823 m 92 720 l 214 720 l 214 171 l 552 720 l 684 720 l 684 0 l 562 0 l 562 546 l 223 0 l 92 0 l 92 720 z "},"к":{"ha":608,"x_min":91,"x_max":618,"o":"m 91 720 l 213 720 l 213 409 q 295 431 271 409 q 363 562 318 454 q 422 674 399 647 q 473 711 444 701 q 567 720 503 720 l 591 720 l 591 619 l 557 620 q 496 606 509 620 q 452 517 481 591 q 401 419 425 446 q 330 370 378 392 q 485 223 409 349 l 618 0 l 484 0 l 354 223 q 284 312 314 290 q 213 333 254 333 l 213 0 l 91 0 l 91 720 z "},"л":{"ha":810,"x_min":16,"x_max":718,"o":"m 151 720 l 718 720 l 718 0 l 597 0 l 597 619 l 273 619 l 273 260 q 265 95 273 135 q 220 25 257 55 q 115 -5 184 -5 q 16 1 72 -5 l 16 102 l 70 102 q 124 110 108 102 q 146 135 140 118 q 151 245 151 152 l 151 720 z "},"м":{"ha":955,"x_min":95,"x_max":860,"o":"m 95 720 l 285 720 l 474 144 l 684 720 l 860 720 l 860 0 l 738 0 l 738 580 l 525 0 l 416 0 l 214 608 l 214 0 l 95 0 l 95 720 z "},"н":{"ha":767,"x_min":92,"x_max":675,"o":"m 92 720 l 214 720 l 214 420 l 553 420 l 553 720 l 675 720 l 675 0 l 553 0 l 553 319 l 214 319 l 214 0 l 92 0 l 92 720 z "},"о":{"ha":772,"x_min":49,"x_max":724,"o":"m 49 360 q 148 645 49 554 q 387 736 247 736 q 632 636 541 736 q 724 370 724 536 q 630 80 724 176 q 387 -16 536 -16 q 146 77 243 -16 q 49 360 49 170 m 174 360 q 234 154 174 224 q 387 84 294 84 q 538 154 479 84 q 598 364 598 224 q 540 564 598 492 q 387 635 481 635 q 234 566 294 635 q 174 360 174 496 z "},"п":{"ha":752,"x_min":92,"x_max":661,"o":"m 92 720 l 661 720 l 661 0 l 538 0 l 538 619 l 214 619 l 214 0 l 92 0 l 92 720 z "},"р":{"ha":772,"x_min":94,"x_max":720,"o":"m 94 -276 l 94 720 l 205 720 l 205 627 q 295 709 243 682 q 413 736 347 736 q 638 633 556 736 q 720 374 720 529 q 631 89 720 194 q 405 -16 543 -16 q 300 6 347 -16 q 216 75 253 29 l 216 -276 l 94 -276 m 205 356 q 255 158 205 231 q 397 84 304 84 q 537 153 479 84 q 595 369 595 222 q 541 568 595 496 q 403 641 488 641 q 260 562 316 641 q 205 356 205 482 z "},"с":{"ha":694,"x_min":54,"x_max":682,"o":"m 562 264 l 682 248 q 580 54 664 123 q 386 -16 496 -16 q 140 85 225 -16 q 54 357 54 187 q 144 640 54 543 q 382 736 234 736 q 569 681 489 736 q 670 509 650 625 l 551 490 q 388 636 517 636 q 235 567 291 636 q 180 364 180 498 q 230 154 180 224 q 380 84 280 84 q 562 264 536 84 z "},"т":{"ha":636,"x_min":26,"x_max":611,"o":"m 26 720 l 611 720 l 611 619 l 379 619 l 379 0 l 258 0 l 258 619 l 26 619 l 26 720 z "},"у":{"ha":694,"x_min":22,"x_max":682,"o":"m 86 -277 l 73 -163 q 143 -174 111 -174 q 228 -146 201 -174 q 285 -31 254 -119 q 296 -1 288 -21 l 22 720 l 154 720 l 304 303 q 356 136 334 220 q 406 300 376 218 l 560 720 l 682 720 l 408 -12 q 299 -235 346 -178 q 165 -292 252 -292 q 86 -277 128 -292 z "},"ф":{"ha":1143,"x_min":51,"x_max":1092,"o":"m 511 994 l 633 994 l 633 650 q 716 715 671 694 q 814 736 762 736 q 1017 630 942 736 q 1092 361 1092 523 q 1011 88 1092 192 q 810 -16 930 -16 q 730 -4 771 -16 q 633 62 690 8 l 633 -276 l 511 -276 l 511 62 q 430 3 474 23 q 334 -16 385 -16 q 136 83 220 -16 q 51 368 51 182 q 127 630 51 524 q 334 736 204 736 q 432 715 388 736 q 511 650 476 694 l 511 994 m 632 357 q 677 139 632 195 q 789 83 722 83 q 916 152 863 83 q 968 366 968 220 q 920 570 968 503 q 795 637 871 637 q 673 567 714 637 q 632 357 632 497 m 175 371 q 226 151 175 218 q 353 84 277 84 q 472 151 433 84 q 511 351 511 218 q 470 565 511 494 q 345 636 429 636 q 222 567 270 636 q 175 371 175 497 z "},"х":{"ha":694,"x_min":10,"x_max":684,"o":"m 10 0 l 273 374 l 30 720 l 182 720 l 293 551 q 343 471 328 498 q 398 550 368 508 l 519 720 l 665 720 l 416 381 l 684 0 l 534 0 l 387 224 l 347 284 l 158 0 l 10 0 z "},"ц":{"ha":795,"x_min":94,"x_max":754,"o":"m 94 720 l 216 720 l 216 100 l 553 100 l 553 720 l 675 720 l 675 100 l 754 100 l 754 -276 l 654 -276 l 654 0 l 94 0 l 94 720 z "},"ч":{"ha":724,"x_min":47,"x_max":631,"o":"m 47 720 l 169 720 l 169 584 q 179 456 169 496 q 230 387 190 416 q 330 357 270 357 q 509 394 399 357 l 509 720 l 631 720 l 631 0 l 509 0 l 509 290 q 299 255 397 255 q 154 297 217 255 q 69 399 92 338 q 47 532 47 459 l 47 720 z "},"ш":{"ha":1114,"x_min":96,"x_max":1018,"o":"m 96 720 l 218 720 l 218 101 l 496 101 l 496 720 l 618 720 l 618 101 l 897 101 l 897 720 l 1018 720 l 1018 0 l 96 0 l 96 720 z "},"щ":{"ha":1143,"x_min":96,"x_max":1099,"o":"m 96 720 l 218 720 l 218 100 l 496 100 l 496 720 l 618 720 l 618 100 l 897 100 l 897 720 l 1018 720 l 1018 100 l 1099 100 l 1099 -276 l 998 -276 l 998 0 l 96 0 l 96 720 z "},"ъ":{"ha":868,"x_min":0,"x_max":819,"o":"m 0 720 l 349 720 l 349 439 l 505 439 q 744 375 669 439 q 819 218 819 311 q 746 61 819 121 q 533 0 674 0 l 227 0 l 227 619 l 0 619 l 0 720 m 349 99 l 477 99 q 643 127 594 99 q 692 218 692 155 q 650 306 692 275 q 494 337 608 337 l 349 337 l 349 99 z "},"ы":{"ha":998,"x_min":94,"x_max":899,"o":"m 777 720 l 899 720 l 899 0 l 777 0 l 777 720 m 94 720 l 216 720 l 216 439 l 371 439 q 604 380 522 439 q 686 218 686 321 q 617 64 686 128 q 399 0 549 0 l 94 0 l 94 720 m 216 100 l 345 100 q 510 129 460 100 q 559 218 559 157 q 523 301 559 264 q 361 338 486 338 l 216 338 l 216 100 z "},"ь":{"ha":724,"x_min":90,"x_max":681,"o":"m 90 720 l 212 720 l 212 439 l 366 439 q 599 380 517 439 q 681 218 681 321 q 613 64 681 128 q 395 0 545 0 l 90 0 l 90 720 m 212 100 l 340 100 q 505 129 456 100 q 555 218 555 157 q 518 301 555 264 q 356 338 481 338 l 212 338 l 212 100 z "},"э":{"ha":709,"x_min":33,"x_max":657,"o":"m 277 419 l 277 319 l 532 319 q 471 143 520 201 q 334 84 422 84 q 152 263 180 84 l 33 248 q 131 56 52 129 q 340 -16 211 -16 q 572 86 488 -16 q 657 360 657 189 q 570 636 657 536 q 331 736 482 736 q 136 672 210 736 q 45 507 61 608 l 163 488 q 335 635 193 635 q 468 575 416 635 q 532 419 520 515 l 277 419 z "},"ю":{"ha":1042,"x_min":93,"x_max":985,"o":"m 93 720 l 215 720 l 215 419 l 363 419 q 459 655 379 574 q 668 736 540 736 q 840 692 777 736 q 944 571 903 648 q 985 363 985 494 q 901 80 985 176 q 671 -16 816 -16 q 454 73 536 -16 q 363 319 373 163 l 215 319 l 215 0 l 93 0 l 93 720 m 675 633 q 535 564 585 633 q 486 371 486 495 q 536 153 486 222 q 670 84 586 84 q 807 148 753 84 q 860 355 860 212 q 814 563 860 494 q 675 633 768 633 z "},"¤":{"ha":772,"x_min":53,"x_max":720,"o":"m 147 652 l 53 744 l 131 825 l 225 730 q 301 767 261 755 q 386 779 342 779 q 471 767 431 779 q 547 730 511 755 l 641 825 l 720 744 l 625 652 q 673 492 673 577 q 625 332 673 407 l 720 240 l 641 159 l 547 254 q 471 217 511 230 q 386 205 431 205 q 301 217 342 205 q 225 254 261 230 l 131 159 l 53 240 l 147 332 q 99 493 99 407 q 147 652 99 577 m 210 492 q 260 369 210 421 q 385 316 311 316 q 509 368 458 316 q 561 492 561 419 q 509 616 561 565 q 385 668 458 668 q 260 615 310 668 q 210 492 210 563 z "},"¦":{"ha":361,"x_min":127,"x_max":234,"o":"m 234 1011 l 234 475 l 127 475 l 127 1011 l 234 1011 m 234 244 l 234 -292 l 127 -292 l 127 244 l 234 244 z "},"Ґ":{"ha":563,"x_min":109,"x_max":521,"o":"m 404 994 l 404 1270 l 521 1270 l 521 877 l 241 877 l 241 0 l 109 0 l 109 994 l 404 994 z "},"ґ":{"ha":471,"x_min":92,"x_max":429,"o":"m 328 720 l 328 996 l 429 996 l 429 619 l 214 619 l 214 0 l 92 0 l 92 720 l 328 720 z "},"‚":{"ha":314,"x_min":79,"x_max":220,"o":"m 90 0 l 90 142 l 220 142 l 220 30 q 196 -107 220 -59 q 109 -184 172 -155 l 79 -136 q 153 0 153 -106 l 90 0 z "},"‡":{"ha":772,"x_min":52,"x_max":720,"o":"m 325 -235 l 325 16 l 52 16 l 52 125 l 325 125 l 325 617 l 52 617 l 52 726 l 325 726 l 325 981 l 447 981 l 447 726 l 720 726 l 720 617 l 447 617 l 447 125 l 720 125 l 720 16 l 447 16 l 447 -235 l 325 -235 z "},"‰":{"ha":1389,"x_min":25,"x_max":1364,"o":"m 217 -37 l 625 1011 l 713 1011 l 307 -37 l 217 -37 m 25 745 q 76 938 25 873 q 219 1003 127 1003 q 364 937 313 1003 q 414 748 414 871 q 366 547 414 614 q 220 480 317 480 q 75 548 125 480 q 25 745 25 616 m 125 740 q 150 609 125 652 q 223 565 174 565 q 291 609 269 565 q 314 739 314 652 q 291 874 314 829 q 220 919 267 919 q 149 874 173 919 q 125 740 125 829 m 517 228 q 568 421 517 356 q 711 486 618 486 q 853 423 800 486 q 907 231 907 360 q 858 30 907 97 q 713 -37 810 -37 q 568 31 618 -37 q 517 228 517 99 m 618 222 q 642 91 618 135 q 715 47 667 47 q 784 91 761 47 q 806 222 806 135 q 783 357 806 312 q 713 401 760 401 q 642 357 665 401 q 618 222 618 312 m 975 228 q 1025 421 975 356 q 1168 486 1076 486 q 1313 419 1263 486 q 1364 231 1364 353 q 1315 30 1364 97 q 1170 -37 1267 -37 q 1025 31 1075 -37 q 975 228 975 99 m 1075 222 q 1099 91 1075 135 q 1173 47 1124 47 q 1241 91 1218 47 q 1263 222 1263 135 q 1240 357 1263 312 q 1170 401 1217 401 q 1099 357 1122 401 q 1075 222 1075 312 z "},"‹":{"ha":464,"x_min":63,"x_max":378,"o":"m 198 357 l 378 49 l 277 49 l 63 357 l 277 667 l 378 667 l 198 357 z "},"›":{"ha":464,"x_min":86,"x_max":401,"o":"m 266 359 l 86 667 l 187 667 l 401 359 l 187 49 l 86 49 l 266 359 z "},"·":{"ha":389,"x_min":125,"x_max":264,"o":"m 125 420 l 125 559 l 264 559 l 264 420 l 125 420 z "},"∙":{"ha":389,"x_min":125,"x_max":264,"o":"m 125 420 l 125 559 l 264 559 l 264 420 l 125 420 z "}}}
